<svg width="59" height="21" viewBox="0 0 59 21" fill="none" xmlns="http://www.w3.org/2000/svg">
<path d="M30.964 9.974C31.3187 10.03 31.6407 10.1747 31.93 10.408C32.2287 10.6413 32.462 10.9307 32.63 11.276C32.8073 11.6213 32.896 11.99 32.896 12.382C32.896 12.8767 32.77 13.3247 32.518 13.726C32.266 14.118 31.8973 14.4307 31.412 14.664C30.936 14.888 30.3713 15 29.718 15H26.078V5.242H29.578C30.2407 5.242 30.8053 5.354 31.272 5.578C31.7387 5.79267 32.0887 6.08667 32.322 6.46C32.5553 6.83333 32.672 7.25333 32.672 7.72C32.672 8.29867 32.5133 8.77933 32.196 9.162C31.888 9.53533 31.4773 9.806 30.964 9.974ZM27.352 9.456H29.494C30.0913 9.456 30.5533 9.316 30.88 9.036C31.2067 8.756 31.37 8.36867 31.37 7.874C31.37 7.37933 31.2067 6.992 30.88 6.712C30.5533 6.432 30.082 6.292 29.466 6.292H27.352V9.456ZM29.606 13.95C30.2407 13.95 30.7353 13.8007 31.09 13.502C31.4447 13.2033 31.622 12.788 31.622 12.256C31.622 11.7147 31.4353 11.29 31.062 10.982C30.6887 10.6647 30.1893 10.506 29.564 10.506H27.352V13.95H29.606ZM34.1879 11.136C34.1879 10.352 34.3466 9.666 34.6639 9.078C34.9813 8.48067 35.4153 8.01867 35.9659 7.692C36.5259 7.36533 37.1466 7.202 37.8279 7.202C38.4999 7.202 39.0833 7.34667 39.5779 7.636C40.0726 7.92533 40.4413 8.28933 40.6839 8.728V7.328H41.9719V15H40.6839V13.572C40.4319 14.02 40.0539 14.3933 39.5499 14.692C39.0553 14.9813 38.4766 15.126 37.8139 15.126C37.1326 15.126 36.5166 14.958 35.9659 14.622C35.4153 14.286 34.9813 13.8147 34.6639 13.208C34.3466 12.6013 34.1879 11.9107 34.1879 11.136ZM40.6839 11.15C40.6839 10.5713 40.5673 10.0673 40.3339 9.638C40.1006 9.20867 39.7833 8.882 39.3819 8.658C38.9899 8.42467 38.5559 8.308 38.0799 8.308C37.6039 8.308 37.1699 8.42 36.7779 8.644C36.3859 8.868 36.0733 9.19467 35.8399 9.624C35.6066 10.0533 35.4899 10.5573 35.4899 11.136C35.4899 11.724 35.6066 12.2373 35.8399 12.676C36.0733 13.1053 36.3859 13.4367 36.7779 13.67C37.1699 13.894 37.6039 14.006 38.0799 14.006C38.5559 14.006 38.9899 13.894 39.3819 13.67C39.7833 13.4367 40.1006 13.1053 40.3339 12.676C40.5673 12.2373 40.6839 11.7287 40.6839 11.15ZM43.6489 11.15C43.6489 10.3567 43.8075 9.666 44.1249 9.078C44.4422 8.48067 44.8809 8.01867 45.4409 7.692C46.0102 7.36533 46.6589 7.202 47.3869 7.202C48.3295 7.202 49.1042 7.43067 49.7109 7.888C50.3269 8.34533 50.7329 8.98 50.9289 9.792H49.5569C49.4262 9.32533 49.1695 8.95667 48.7869 8.686C48.4135 8.41533 47.9469 8.28 47.3869 8.28C46.6589 8.28 46.0709 8.532 45.6229 9.036C45.1749 9.53067 44.9509 10.2353 44.9509 11.15C44.9509 12.074 45.1749 12.788 45.6229 13.292C46.0709 13.796 46.6589 14.048 47.3869 14.048C47.9469 14.048 48.4135 13.9173 48.7869 13.656C49.1602 13.3947 49.4169 13.0213 49.5569 12.536H50.9289C50.7235 13.32 50.3129 13.95 49.6969 14.426C49.0809 14.8927 48.3109 15.126 47.3869 15.126C46.6589 15.126 46.0102 14.9627 45.4409 14.636C44.8809 14.3093 44.4422 13.8473 44.1249 13.25C43.8075 12.6527 43.6489 11.9527 43.6489 11.15ZM56.9128 15L53.9028 11.612V15H52.6288V4.64H53.9028V10.73L56.8568 7.328H58.6348L55.0228 11.15L58.6488 15H56.9128Z" fill="#303840"/>
<path fill-rule="evenodd" clip-rule="evenodd" d="M14.5795 10.4876C14.8186 10.4456 15 10.2433 15 10C15 9.72629 14.7705 9.5044 14.4873 9.5044L6.88192 9.5044L9.83856 6.84604L9.90234 6.7774C10.0512 6.58425 10.0299 6.3172 9.83856 6.14516C9.6233 5.95161 9.2743 5.95161 9.05904 6.14516L5.23538 9.58308C5.09377 9.67128 5 9.82505 5 10C5 10.1749 5.09377 10.3287 5.23538 10.4169L9.05904 13.8548L9.13538 13.9122C9.3502 14.046 9.64722 14.0269 9.83856 13.8548L9.90234 13.7862C10.0512 13.5931 10.0299 13.326 9.83856 13.154L6.88324 10.4956L14.4873 10.4956L14.5795 10.4876Z" fill="#303840"/>
</svg>
