<svg width="14" height="16" viewBox="0 0 14 16" fill="none" xmlns="http://www.w3.org/2000/svg">
<path d="M6.76059 8.71941C7.95352 8.71941 8.92059 7.75235 8.92059 6.55941C8.92059 5.36648 7.95352 4.39941 6.76059 4.39941C5.56765 4.39941 4.60059 5.36648 4.60059 6.55941C4.60059 7.75235 5.56765 8.71941 6.76059 8.71941Z" stroke="#626D8A" stroke-width="1.3" stroke-linecap="round" stroke-linejoin="round"/>
<path d="M6.75951 0.799805C5.23186 0.799805 3.76679 1.40666 2.68658 2.48687C1.60637 3.56708 0.999512 5.03216 0.999512 6.5598C0.999512 7.92204 1.28895 8.8134 2.07951 9.7998L6.75951 15.1998L11.4395 9.7998C12.2301 8.8134 12.5195 7.92204 12.5195 6.5598C12.5195 5.03216 11.9127 3.56708 10.8324 2.48687C9.75224 1.40666 8.28716 0.799805 6.75951 0.799805V0.799805Z" stroke="#626D8A" stroke-width="1.3" stroke-linecap="round" stroke-linejoin="round"/>
</svg>
