<svg width="12" height="12" viewBox="0 0 12 12" fill="none" xmlns="http://www.w3.org/2000/svg">
<path d="M1.34533 6.41992H4.71142C4.82552 6.42036 4.93842 6.44312 5.04367 6.48688C5.14892 6.53065 5.24445 6.59457 5.32482 6.675C5.40519 6.75543 5.46882 6.85079 5.51207 6.95563C5.55533 7.06048 5.57736 7.17276 5.57692 7.28606V10.6318C5.57721 10.7453 5.55496 10.8578 5.51143 10.9627C5.46789 11.0676 5.40394 11.163 5.32323 11.2434C5.24251 11.3237 5.14663 11.3875 5.04106 11.431C4.9355 11.4745 4.82233 11.4968 4.70803 11.4968H4.67644C4.5621 11.497 4.44886 11.4747 4.34323 11.4313C4.2376 11.3878 4.14165 11.3241 4.06091 11.2437C3.98017 11.1633 3.91622 11.0679 3.87274 10.9629C3.82926 10.8579 3.80711 10.7454 3.80755 10.6318V8.16676H1.34533C1.11839 8.15867 0.903455 8.06346 0.745783 7.90118C0.588111 7.7389 0.5 7.5222 0.5 7.2967C0.5 7.07121 0.588111 6.85451 0.745783 6.69222C0.903455 6.52994 1.11839 6.43473 1.34533 6.42665V6.41992Z" fill="#3198D2"/>
<path d="M10.6597 5.57497H7.29412C7.17959 5.57526 7.06613 5.55308 6.96027 5.50969C6.85442 5.4663 6.75826 5.40256 6.67732 5.32215C6.59639 5.24173 6.53228 5.14623 6.4887 5.04113C6.44511 4.93603 6.4229 4.82341 6.42335 4.70976V1.36325C6.42275 1.13457 6.51364 0.915009 6.67606 0.752783C6.83848 0.590558 7.05915 0.498938 7.2896 0.498048H7.32687C7.4413 0.497899 7.55464 0.520193 7.66037 0.563649C7.76609 0.607105 7.86212 0.670865 7.94293 0.751266C8.02374 0.831667 8.08775 0.927123 8.13127 1.03215C8.17478 1.13717 8.19696 1.2497 8.19651 1.36325V3.84568H10.6597C10.8854 3.85374 11.0991 3.94837 11.2559 4.10964C11.4127 4.27091 11.5003 4.48625 11.5003 4.71032C11.5003 4.9344 11.4127 5.14973 11.2559 5.31101C11.0991 5.47228 10.8854 5.5669 10.6597 5.57497Z" fill="#37B3E5"/>
<path d="M0.800477 2.18337L9.84295 11.2142C10.025 11.3959 10.2718 11.498 10.5291 11.498C10.7865 11.498 11.0333 11.3959 11.2153 11.2142C11.3976 11.0314 11.5 10.784 11.5 10.526C11.5 10.268 11.3976 10.0206 11.2153 9.83782L2.18517 0.781286C2.00373 0.603292 1.76066 0.501902 1.50637 0.498155C1.25209 0.494407 1.00612 0.58859 0.819507 0.76116C0.723239 0.848842 0.645451 0.954826 0.590698 1.07291C0.535944 1.19099 0.505326 1.31879 0.500635 1.44884C0.495944 1.57889 0.517275 1.70856 0.563379 1.83027C0.609483 1.95198 0.679433 2.06328 0.769134 2.15766L0.800477 2.18337Z" fill="#B4D677"/>
<path d="M4.73846 6.41992H4.76254C4.98122 6.42781 5.18833 6.52042 5.34025 6.67824C5.49218 6.83606 5.57707 7.04679 5.57707 7.26608C5.57707 7.48536 5.49218 7.69609 5.34025 7.85391C5.18833 8.01174 4.98122 8.10434 4.76254 8.11223H3.89571C3.88477 8.11223 3.88477 8.11223 3.88477 8.10236V7.26772C3.8865 7.04218 3.97728 6.8265 4.13725 6.66783C4.29723 6.50917 4.51338 6.42043 4.73846 6.42102V6.41992Z" fill="#37B3E5"/>
<path d="M7.26085 5.57707H7.23893C7.01996 5.56918 6.81259 5.47657 6.66047 5.31875C6.50835 5.16093 6.42334 4.9502 6.42334 4.73092C6.42334 4.51163 6.50835 4.3009 6.66047 4.14308C6.81259 3.98526 7.01996 3.89266 7.23893 3.88477H8.11565V4.73037C8.1142 4.956 8.02339 5.17185 7.86315 5.33057C7.70291 5.4893 7.4863 5.57794 7.26085 5.57707Z" fill="#7FD5F2"/>
</svg>
