<svg width="14" height="8" viewBox="0 0 14 8" fill="none" xmlns="http://www.w3.org/2000/svg">
<path d="M0.63556 0.292787C0.823088 0.105316 1.0774 0 1.34256 0C1.60772 0 1.86203 0.105316 2.04956 0.292787L6.99956 5.24279L11.9496 0.292787C12.1382 0.110629 12.3908 0.00983372 12.653 0.0121121C12.9152 0.0143906 13.166 0.11956 13.3514 0.304968C13.5368 0.490376 13.642 0.741188 13.6442 1.00339C13.6465 1.26558 13.5457 1.51818 13.3636 1.70679L7.70656 7.36379C7.51903 7.55126 7.26472 7.65657 6.99956 7.65657C6.7344 7.65657 6.48009 7.55126 6.29256 7.36379L0.63556 1.70679C0.448089 1.51926 0.342773 1.26495 0.342773 0.999786C0.342773 0.734622 0.448089 0.480314 0.63556 0.292787Z" fill="#1F2131"/>
</svg>
