<svg width="58" height="55" viewBox="0 0 58 55" fill="none" xmlns="http://www.w3.org/2000/svg">
  <g filter="url(#filter0_d_496_941)">
    <circle cx="29" cy="25" r="23" fill="white"/>
  </g>
  <path d="M24.9697 17.4697C24.7034 17.7359 24.6792 18.1526 24.8971 18.4462L24.9697 18.5303L31.439 25L24.9697 31.4697C24.7034 31.7359 24.6792 32.1526 24.8971 32.4462L24.9697 32.5303C25.2359 32.7966 25.6526 32.8208 25.9462 32.6029L26.0303 32.5303L33.0303 25.5303C33.2966 25.2641 33.3208 24.8474 33.1029 24.5538L33.0303 24.4697L26.0303 17.4697C25.7374 17.1768 25.2626 17.1768 24.9697 17.4697Z" fill="#5162F6" transform="rotate(180 29 25)"/>
  <defs>
    <filter id="filter0_d_496_941" x="0" y="0" width="58" height="58" filterUnits="userSpaceOnUse" color-interpolation-filters="sRGB">
      <feFlood flood-opacity="0" result="BackgroundImageFix"/>
      <feColorMatrix in="SourceAlpha" type="matrix" values="0 0 0 0 0 0 0 0 0 0 0 0 0 0 0 0 0 0 127 0" result="hardAlpha"/>
      <feOffset dy="4"/>
      <feGaussianBlur stdDeviation="3"/>
      <feComposite in2="hardAlpha" operator="out"/>
      <feColorMatrix type="matrix" values="0 0 0 0 0 0 0 0 0 0 0 0 0 0 0 0 0 0 0.11 0"/>
      <feBlend mode="normal" in2="BackgroundImageFix" result="effect1_dropShadow_496_941"/>
      <feBlend mode="normal" in="SourceGraphic" in2="effect1_dropShadow_496_941" result="shape"/>
    </filter>
  </defs>
</svg>
